<?xml version="1.0" encoding="UTF-8" standalone="no"?>
<!-- Created with Inkscape (http://www.inkscape.org/) -->

<svg
   xmlns:dc="http://purl.org/dc/elements/1.1/"
   xmlns:cc="http://creativecommons.org/ns#"
   xmlns:rdf="http://www.w3.org/1999/02/22-rdf-syntax-ns#"
   xmlns:svg="http://www.w3.org/2000/svg"
   xmlns="http://www.w3.org/2000/svg"
   xmlns:sodipodi="http://sodipodi.sourceforge.net/DTD/sodipodi-0.dtd"
   xmlns:inkscape="http://www.inkscape.org/namespaces/inkscape"
   width="169.54073"
   height="175.716"
   id="svg2"
   version="1.1"
   inkscape:version="0.48.1 r9760"
   sodipodi:docname="mutex.svg">
  <defs
     id="defs4">
    <marker
       inkscape:stockid="Arrow2Mend"
       orient="auto"
       refY="0"
       refX="0"
       id="Arrow2Mend"
       style="overflow:visible">
      <path
         id="path4108"
         style="font-size:12px;fill-rule:evenodd;stroke-width:0.625;stroke-linejoin:round"
         d="M 8.7185878,4.0337352 -2.2072895,0.01601326 8.7185884,-4.0017078 c -1.7454984,2.3720609 -1.7354408,5.6174519 -6e-7,8.035443 z"
         transform="scale(-0.6,-0.6)"
         inkscape:connector-curvature="0" />
    </marker>
    <marker
       inkscape:stockid="Arrow2Lend"
       orient="auto"
       refY="0"
       refX="0"
       id="Arrow2Lend"
       style="overflow:visible">
      <path
         id="path4187"
         style="font-size:12px;fill-rule:evenodd;stroke-width:0.625;stroke-linejoin:round"
         d="M 8.7185878,4.0337352 -2.2072895,0.01601326 8.7185884,-4.0017078 c -1.7454984,2.3720609 -1.7354408,5.6174519 -6e-7,8.035443 z"
         transform="matrix(-1.1,0,0,-1.1,-1.1,0)"
         inkscape:connector-curvature="0" />
    </marker>
  </defs>
  <sodipodi:namedview
     id="base"
     pagecolor="#ffffff"
     bordercolor="#666666"
     borderopacity="1.0"
     inkscape:pageopacity="0.0"
     inkscape:pageshadow="2"
     inkscape:zoom="4"
     inkscape:cx="59.412264"
     inkscape:cy="89.834291"
     inkscape:document-units="px"
     inkscape:current-layer="layer1"
     showgrid="true"
     fit-margin-top="0"
     fit-margin-left="0"
     fit-margin-right="0"
     fit-margin-bottom="0"
     inkscape:window-width="1680"
     inkscape:window-height="1001"
     inkscape:window-x="1440"
     inkscape:window-y="25"
     inkscape:window-maximized="1"
     units="cm"
     inkscape:snap-bbox="false"
     inkscape:snap-bbox-midpoints="true"
     inkscape:snap-bbox-edge-midpoints="true"
     inkscape:bbox-nodes="true"
     inkscape:bbox-paths="true">
    <inkscape:grid
       type="xygrid"
       id="grid2985"
       empspacing="10"
       visible="true"
       enabled="true"
       snapvisiblegridlinesonly="true"
       spacingx="5px"
       spacingy="5px" />
  </sodipodi:namedview>
  <metadata
     id="metadata7">
    <rdf:RDF>
      <cc:Work
         rdf:about="">
        <dc:format>image/svg+xml</dc:format>
        <dc:type
           rdf:resource="http://purl.org/dc/dcmitype/StillImage" />
        <dc:title />
      </cc:Work>
    </rdf:RDF>
  </metadata>
  <g
     inkscape:label="Layer 1"
     inkscape:groupmode="layer"
     id="layer1"
     transform="translate(-179.756,-78.646183)">
    <text
       sodipodi:linespacing="125%"
       id="text5065"
       y="88.362183"
       x="294"
       style="font-size:40px;font-style:normal;font-weight:normal;line-height:125%;letter-spacing:0px;word-spacing:0px;fill:#000000;fill-opacity:1;stroke:none;font-family:Sans"
       xml:space="preserve"><tspan
         style="font-size:14px;font-style:normal;font-variant:normal;font-weight:normal;font-stretch:normal;font-family:LM Roman 12;-inkscape-font-specification:'LM Roman 12,'"
         y="88.362183"
         x="294"
         id="tspan5067"
         sodipodi:role="line">Module 2</tspan></text>
    <rect
       style="fill:none;stroke:#000000;stroke-width:1;stroke-miterlimit:4;stroke-opacity:1;stroke-dasharray:none"
       id="rect3892"
       width="20"
       height="10"
       x="229.756"
       y="133.86218"
       rx="9.9107141"
       ry="0" />
    <g
       id="g4532"
       transform="translate(0.756,0.50000642)">
      <g
         transform="translate(-40,-20)"
         id="g4528">
        <path
           transform="translate(219,71.862183)"
           d="m 70,51.5 c 0,5.522847 -4.477153,10 -10,10 -5.522847,0 -10,-4.477153 -10,-10 0,-5.522847 4.477153,-10 10,-10 5.522847,0 10,4.477153 10,10 z"
           sodipodi:ry="10"
           sodipodi:rx="10"
           sodipodi:cy="51.5"
           sodipodi:cx="60"
           id="path4524"
           style="fill:none;stroke:#000000;stroke-width:1;stroke-miterlimit:4;stroke-opacity:1;stroke-dasharray:none"
           sodipodi:type="arc" />
        <path
           sodipodi:type="arc"
           style="fill:#000000;fill-opacity:1;stroke:#000000;stroke-width:1;stroke-miterlimit:4;stroke-opacity:1;stroke-dasharray:none"
           id="path4526"
           sodipodi:cx="102.5"
           sodipodi:cy="74"
           sodipodi:rx="2.5"
           sodipodi:ry="2.5"
           d="m 105,74 c 0,1.380712 -1.11929,2.5 -2.5,2.5 -1.38071,0 -2.5,-1.119288 -2.5,-2.5 0,-1.380712 1.11929,-2.5 2.5,-2.5 1.38071,0 2.5,1.119288 2.5,2.5 z"
           transform="translate(176.5,49.362183)" />
      </g>
    </g>
    <path
       sodipodi:type="arc"
       style="fill:none;stroke:#000000;stroke-width:1;stroke-miterlimit:4;stroke-opacity:1;stroke-dasharray:none"
       id="path4541"
       sodipodi:cx="60"
       sodipodi:cy="51.5"
       sodipodi:rx="10"
       sodipodi:ry="10"
       d="m 70,51.5 c 0,5.522847 -4.477153,10 -10,10 -5.522847,0 -10,-4.477153 -10,-10 0,-5.522847 4.477153,-10 10,-10 5.522847,0 10,4.477153 10,10 z"
       transform="translate(179.756,122.36219)" />
    <path
       style="fill:none;stroke:#000000;stroke-width:1px;stroke-linecap:butt;stroke-linejoin:miter;stroke-opacity:1;marker-end:url(#Arrow2Mend)"
       d="m 239.756,143.86218 0,20.00001"
       id="path4552"
       inkscape:connector-type="polyline"
       inkscape:connector-curvature="0"
       inkscape:connection-start="#rect3892"
       inkscape:connection-start-point="d4"
       inkscape:connection-end="#path4541"
       inkscape:connection-end-point="d4" />
    <g
       id="g4738"
       transform="translate(40.756,70.500006)">
      <g
         id="g4740"
         transform="translate(-40,-20)">
        <path
           sodipodi:type="arc"
           style="fill:none;stroke:#000000;stroke-width:1;stroke-miterlimit:4;stroke-opacity:1;stroke-dasharray:none"
           id="path4742"
           sodipodi:cx="60"
           sodipodi:cy="51.5"
           sodipodi:rx="10"
           sodipodi:ry="10"
           d="m 70,51.5 c 0,5.522847 -4.477153,10 -10,10 -5.522847,0 -10,-4.477153 -10,-10 0,-5.522847 4.477153,-10 10,-10 5.522847,0 10,4.477153 10,10 z"
           transform="translate(219,71.862183)" />
        <path
           transform="translate(176.5,49.362183)"
           d="m 105,74 c 0,1.380712 -1.11929,2.5 -2.5,2.5 -1.38071,0 -2.5,-1.119288 -2.5,-2.5 0,-1.380712 1.11929,-2.5 2.5,-2.5 1.38071,0 2.5,1.119288 2.5,2.5 z"
           sodipodi:ry="2.5"
           sodipodi:rx="2.5"
           sodipodi:cy="74"
           sodipodi:cx="102.5"
           id="path4744"
           style="fill:#000000;fill-opacity:1;stroke:#000000;stroke-width:1;stroke-miterlimit:4;stroke-opacity:1;stroke-dasharray:none"
           sodipodi:type="arc" />
      </g>
    </g>
    <rect
       ry="0"
       rx="9.9107141"
       y="203.86218"
       x="229.756"
       height="10"
       width="20"
       id="rect4932"
       style="fill:none;stroke:#000000;stroke-width:1;stroke-miterlimit:4;stroke-opacity:1;stroke-dasharray:none" />
    <path
       style="fill:none;stroke:#000000;stroke-width:1px;stroke-linecap:butt;stroke-linejoin:miter;stroke-opacity:1;marker-end:url(#Arrow2Mend)"
       d="m 239.756,183.86219 0,20"
       id="path4936"
       inkscape:connector-curvature="0" />
    <g
       id="g5124"
       transform="translate(0.256,0.50000942)">
      <path
         style="font-size:medium;font-style:normal;font-variant:normal;font-weight:normal;font-stretch:normal;text-indent:0;text-align:start;text-decoration:none;line-height:normal;letter-spacing:normal;word-spacing:normal;text-transform:none;direction:ltr;block-progression:tb;writing-mode:lr-tb;text-anchor:start;baseline-shift:baseline;color:#000000;fill:#000000;fill-opacity:1;stroke:none;stroke-width:1px;marker:none;visibility:visible;display:inline;overflow:visible;enable-background:accumulate;font-family:Sans;-inkscape-font-specification:Sans"
         d="m 249,137.86218 0,1 c 9.91667,0 17.27169,2.47601 22.15625,6.75 4.88456,4.27399 7.34375,10.36111 7.34375,17.75 l 1,0 c 0,-7.61111 -2.54081,-14.02399 -7.65625,-18.5 -5.11544,-4.47601 -12.76042,-7 -22.84375,-7 z"
         id="path4746"
         inkscape:connector-curvature="0" />
      <path
         d="m 254.23115,140.78242 -6.55552,-2.41063 6.55552,-2.41063 c -1.0473,1.42323 -1.04126,3.37047 0,4.82126 z"
         style="font-size:12px;fill-rule:evenodd;stroke-width:0.625;stroke-linejoin:round"
         id="path5130"
         inkscape:connector-curvature="0" />
    </g>
    <path
       transform="translate(179.756,192.36219)"
       d="m 70,51.5 c 0,5.522847 -4.477153,10 -10,10 -5.522847,0 -10,-4.477153 -10,-10 0,-5.522847 4.477153,-10 10,-10 5.522847,0 10,4.477153 10,10 z"
       sodipodi:ry="10"
       sodipodi:rx="10"
       sodipodi:cy="51.5"
       sodipodi:cx="60"
       id="path5138"
       style="fill:none;stroke:#000000;stroke-width:1;stroke-miterlimit:4;stroke-opacity:1;stroke-dasharray:none"
       sodipodi:type="arc" />
    <path
       inkscape:connector-curvature="0"
       id="path5140"
       d="m 239.756,213.86219 0,20"
       style="fill:none;stroke:#000000;stroke-width:1px;stroke-linecap:butt;stroke-linejoin:miter;stroke-opacity:1;marker-end:url(#Arrow2Mend)" />
    <g
       id="g5152"
       transform="matrix(-1,0,0,1,559.256,0.50000942)">
      <path
         inkscape:connector-curvature="0"
         id="path5154"
         d="m 249,137.86218 0,1 c 9.91667,0 17.27169,2.47601 22.15625,6.75 4.88456,4.27399 7.34375,10.36111 7.34375,17.75 l 1,0 c 0,-7.61111 -2.54081,-14.02399 -7.65625,-18.5 -5.11544,-4.47601 -12.76042,-7 -22.84375,-7 z"
         style="font-size:medium;font-style:normal;font-variant:normal;font-weight:normal;font-stretch:normal;text-indent:0;text-align:start;text-decoration:none;line-height:normal;letter-spacing:normal;word-spacing:normal;text-transform:none;direction:ltr;block-progression:tb;writing-mode:lr-tb;text-anchor:start;baseline-shift:baseline;color:#000000;fill:#000000;fill-opacity:1;stroke:none;stroke-width:1px;marker:none;visibility:visible;display:inline;overflow:visible;enable-background:accumulate;font-family:Sans;-inkscape-font-specification:Sans" />
      <path
         inkscape:connector-curvature="0"
         id="path5156"
         style="font-size:12px;fill-rule:evenodd;stroke-width:0.625;stroke-linejoin:round"
         d="m 254.23115,140.78242 -6.55552,-2.41063 6.55552,-2.41063 c -1.0473,1.42323 -1.04126,3.37047 0,4.82126 z" />
    </g>
    <rect
       ry="0"
       rx="9.9107141"
       y="133.86218"
       x="309.75601"
       height="10"
       width="20"
       id="rect5176"
       style="fill:none;stroke:#000000;stroke-width:1;stroke-miterlimit:4;stroke-opacity:1;stroke-dasharray:none" />
    <path
       inkscape:connector-curvature="0"
       inkscape:connector-type="polyline"
       id="path5178"
       d="m 319.756,113.8622 0,20"
       style="fill:none;stroke:#000000;stroke-width:1px;stroke-linecap:butt;stroke-linejoin:miter;stroke-opacity:1;marker-end:url(#Arrow2Mend);display:inline" />
    <g
       id="g5180"
       transform="translate(80.756,0.50000942)">
      <g
         id="g5182"
         transform="translate(-40,-20)">
        <path
           sodipodi:type="arc"
           style="fill:none;stroke:#000000;stroke-width:1;stroke-miterlimit:4;stroke-opacity:1;stroke-dasharray:none"
           id="path5184"
           sodipodi:cx="60"
           sodipodi:cy="51.5"
           sodipodi:rx="10"
           sodipodi:ry="10"
           d="m 70,51.5 c 0,5.522847 -4.477153,10 -10,10 -5.522847,0 -10,-4.477153 -10,-10 0,-5.522847 4.477153,-10 10,-10 5.522847,0 10,4.477153 10,10 z"
           transform="translate(219,71.862183)" />
        <path
           transform="translate(176.5,49.362183)"
           d="m 105,74 c 0,1.380712 -1.11929,2.5 -2.5,2.5 -1.38071,0 -2.5,-1.119288 -2.5,-2.5 0,-1.380712 1.11929,-2.5 2.5,-2.5 1.38071,0 2.5,1.119288 2.5,2.5 z"
           sodipodi:ry="2.5"
           sodipodi:rx="2.5"
           sodipodi:cy="74"
           sodipodi:cx="102.5"
           id="path5186"
           style="fill:#000000;fill-opacity:1;stroke:#000000;stroke-width:1;stroke-miterlimit:4;stroke-opacity:1;stroke-dasharray:none"
           sodipodi:type="arc" />
      </g>
    </g>
    <path
       transform="translate(259.756,122.36219)"
       d="m 70,51.5 c 0,5.522847 -4.477153,10 -10,10 -5.522847,0 -10,-4.477153 -10,-10 0,-5.522847 4.477153,-10 10,-10 5.522847,0 10,4.477153 10,10 z"
       sodipodi:ry="10"
       sodipodi:rx="10"
       sodipodi:cy="51.5"
       sodipodi:cx="60"
       id="path5188"
       style="fill:none;stroke:#000000;stroke-width:1;stroke-miterlimit:4;stroke-opacity:1;stroke-dasharray:none"
       sodipodi:type="arc" />
    <path
       inkscape:connector-curvature="0"
       inkscape:connector-type="polyline"
       id="path5190"
       d="m 319.756,143.8622 0,19.99999"
       style="fill:none;stroke:#000000;stroke-width:1px;stroke-linecap:butt;stroke-linejoin:miter;stroke-opacity:1;marker-end:url(#Arrow2Mend)" />
    <rect
       style="fill:none;stroke:#000000;stroke-width:1;stroke-miterlimit:4;stroke-opacity:1;stroke-dasharray:none"
       id="rect5192"
       width="20"
       height="10"
       x="309.75601"
       y="203.86218"
       rx="9.9107141"
       ry="0" />
    <path
       inkscape:connector-curvature="0"
       id="path5194"
       d="m 319.756,183.8622 0,20"
       style="fill:none;stroke:#000000;stroke-width:1px;stroke-linecap:butt;stroke-linejoin:miter;stroke-opacity:1;marker-end:url(#Arrow2Mend)" />
    <path
       sodipodi:type="arc"
       style="fill:none;stroke:#000000;stroke-width:1;stroke-miterlimit:4;stroke-opacity:1;stroke-dasharray:none"
       id="path5196"
       sodipodi:cx="60"
       sodipodi:cy="51.5"
       sodipodi:rx="10"
       sodipodi:ry="10"
       d="m 70,51.5 c 0,5.522847 -4.477153,10 -10,10 -5.522847,0 -10,-4.477153 -10,-10 0,-5.522847 4.477153,-10 10,-10 5.522847,0 10,4.477153 10,10 z"
       transform="translate(259.756,192.36219)" />
    <path
       style="fill:none;stroke:#000000;stroke-width:1px;stroke-linecap:butt;stroke-linejoin:miter;stroke-opacity:1;marker-end:url(#Arrow2Mend)"
       d="m 319.756,213.86219 0,20"
       id="path5198"
       inkscape:connector-curvature="0" />
    <text
       xml:space="preserve"
       style="font-size:40px;font-style:normal;font-weight:normal;line-height:125%;letter-spacing:0px;word-spacing:0px;fill:#000000;fill-opacity:1;stroke:none;font-family:Sans"
       x="214"
       y="88.362183"
       id="text5200"
       sodipodi:linespacing="125%"><tspan
         sodipodi:role="line"
         id="tspan5202"
         x="214"
         y="88.362183"
         style="font-size:14px;font-style:normal;font-variant:normal;font-weight:normal;font-stretch:normal;font-family:LM Roman 12;-inkscape-font-specification:'LM Roman 12,'">Module 1</tspan></text>
    <text
       sodipodi:linespacing="125%"
       id="text5208"
       y="179.36218"
       x="129.756"
       style="font-size:40px;font-style:normal;font-weight:normal;line-height:125%;letter-spacing:0px;word-spacing:0px;fill:#000000;fill-opacity:1;stroke:none;font-family:Sans"
       xml:space="preserve"><tspan
         style="font-size:14px;font-style:normal;font-variant:normal;font-weight:normal;font-stretch:normal;font-family:LM Roman 12;-inkscape-font-specification:'LM Roman 12,'"
         y="179.36218"
         x="129.756"
         sodipodi:role="line"
         id="tspan5212">Critical Section</tspan></text>
    <path
       style="fill:none;stroke:#000000;stroke-width:1px;stroke-linecap:butt;stroke-linejoin:miter;stroke-opacity:1;marker-end:url(#Arrow2Mend)"
       d="m 60,35.716003 0,20"
       id="path3177"
       inkscape:connector-curvature="0"
       transform="translate(179.756,78.646183)" />
    <path
       style="fill:none;stroke:#000000;stroke-width:1px;stroke-linecap:butt;stroke-linejoin:miter;stroke-opacity:1;marker-end:url(#Arrow2Mend)"
       d="m 70,130.716 c 20,0 30,-10 30,-25"
       id="path3813"
       inkscape:connector-curvature="0"
       transform="translate(179.756,78.646183)"
       sodipodi:nodetypes="cc" />
    <path
       sodipodi:nodetypes="cc"
       inkscape:connector-curvature="0"
       id="path3999"
       d="m 309.756,209.36219 c -20,0 -30,-10 -30,-25"
       style="fill:none;stroke:#000000;stroke-width:1px;stroke-linecap:butt;stroke-linejoin:miter;stroke-opacity:1;marker-end:none" />
  </g>
</svg>
