<?xml version="1.0" encoding="UTF-8" standalone="no"?>
<!-- Created with Inkscape (http://www.inkscape.org/) -->

<svg
   xmlns:dc="http://purl.org/dc/elements/1.1/"
   xmlns:cc="http://creativecommons.org/ns#"
   xmlns:rdf="http://www.w3.org/1999/02/22-rdf-syntax-ns#"
   xmlns:svg="http://www.w3.org/2000/svg"
   xmlns="http://www.w3.org/2000/svg"
   xmlns:sodipodi="http://sodipodi.sourceforge.net/DTD/sodipodi-0.dtd"
   xmlns:inkscape="http://www.inkscape.org/namespaces/inkscape"
   width="188.46051"
   height="170.49829"
   id="svg2"
   version="1.1"
   inkscape:version="0.48.1 r9760"
   sodipodi:docname="ring buffer.svg">
  <defs
     id="defs4">
    <marker
       inkscape:stockid="Arrow2Mend"
       orient="auto"
       refY="0"
       refX="0"
       id="Arrow2Mend"
       style="overflow:visible">
      <path
         id="path4108"
         style="font-size:12px;fill-rule:evenodd;stroke-width:0.625;stroke-linejoin:round"
         d="M 8.7185878,4.0337352 -2.2072895,0.01601326 8.7185884,-4.0017078 c -1.7454984,2.3720609 -1.7354408,5.6174519 -6e-7,8.035443 z"
         transform="scale(-0.6,-0.6)"
         inkscape:connector-curvature="0" />
    </marker>
    <marker
       inkscape:stockid="Arrow2Lend"
       orient="auto"
       refY="0"
       refX="0"
       id="Arrow2Lend"
       style="overflow:visible">
      <path
         id="path4187"
         style="font-size:12px;fill-rule:evenodd;stroke-width:0.625;stroke-linejoin:round"
         d="M 8.7185878,4.0337352 -2.2072895,0.01601326 8.7185884,-4.0017078 c -1.7454984,2.3720609 -1.7354408,5.6174519 -6e-7,8.035443 z"
         transform="matrix(-1.1,0,0,-1.1,-1.1,0)"
         inkscape:connector-curvature="0" />
    </marker>
  </defs>
  <sodipodi:namedview
     id="base"
     pagecolor="#ffffff"
     bordercolor="#666666"
     borderopacity="1.0"
     inkscape:pageopacity="0.0"
     inkscape:pageshadow="2"
     inkscape:zoom="4"
     inkscape:cx="113.35692"
     inkscape:cy="64.213417"
     inkscape:document-units="px"
     inkscape:current-layer="layer1"
     showgrid="true"
     fit-margin-top="0"
     fit-margin-left="0"
     fit-margin-right="0"
     fit-margin-bottom="0"
     inkscape:window-width="1680"
     inkscape:window-height="1001"
     inkscape:window-x="1440"
     inkscape:window-y="25"
     inkscape:window-maximized="1"
     units="cm"
     inkscape:snap-bbox="false"
     inkscape:snap-bbox-midpoints="true"
     inkscape:snap-bbox-edge-midpoints="true"
     inkscape:bbox-nodes="true"
     inkscape:bbox-paths="true">
    <inkscape:grid
       type="xygrid"
       id="grid2985"
       empspacing="10"
       visible="true"
       enabled="true"
       snapvisiblegridlinesonly="true"
       spacingx="5px"
       spacingy="5px" />
  </sodipodi:namedview>
  <metadata
     id="metadata7">
    <rdf:RDF>
      <cc:Work
         rdf:about="">
        <dc:format>image/svg+xml</dc:format>
        <dc:type
           rdf:resource="http://purl.org/dc/dcmitype/StillImage" />
        <dc:title></dc:title>
      </cc:Work>
    </rdf:RDF>
  </metadata>
  <g
     inkscape:label="Layer 1"
     inkscape:groupmode="layer"
     id="layer1"
     transform="translate(-169.81275,-74.506183)">
    <text
       xml:space="preserve"
       style="font-size:40px;font-style:normal;font-weight:normal;line-height:125%;letter-spacing:0px;word-spacing:0px;fill:#000000;fill-opacity:1;stroke:none;font-family:Sans"
       x="279.75601"
       y="84.362183"
       id="text5200"
       sodipodi:linespacing="125%"><tspan
         sodipodi:role="line"
         id="tspan5202"
         x="279.75601"
         y="84.362183"
         style="font-size:14px;font-style:normal;font-variant:normal;font-weight:normal;font-stretch:normal;font-family:LM Roman 12;-inkscape-font-specification:'LM Roman 12,'">Start</tspan></text>
    <g
       id="g5646">
      <path
         transform="matrix(1.0344827,0,0,1.0344828,179.23876,78.104252)"
         style="fill:none;stroke:#000000;stroke-width:1;stroke-miterlimit:4;stroke-opacity:1"
         d="M 160,88.216003 C 160,128.25665 127.54064,160.716 87.5,160.716 47.459356,160.716 15,128.25665 15,88.216003 c 0,-40.040644 32.459356,-72.5 72.5,-72.5 40.04064,0 72.5,32.459356 72.5,72.5 z"
         id="path5252"
         inkscape:connector-curvature="0" />
      <path
         transform="matrix(0.66144246,0,0,0.66319872,230.09668,142.51495)"
         style="fill:none;stroke:#000000;stroke-width:1;stroke-miterlimit:4;stroke-opacity:1"
         inkscape:transform-center-x="5.045041"
         inkscape:transform-center-y="-2.1958346"
         d="M 60.85,41.466003 130.68505,129.33668 60.542224,41.71149 96.112159,148.16791 60.169047,41.836906 57.183613,154.03885 59.775481,41.827125 18.594765,146.24139 59.408995,41.683326 -15.000001,125.716 59.113793,41.422854 -39.54866,94.938366 58.925481,41.077125 -52.090281,57.62071 58.866772,40.68784 -51.11216,18.264098 58.944746,40.301951 -36.732273,-18.384484 59.15,39.966003 -10.685046,-47.904674 59.457776,39.720517 23.887841,-66.735903 59.830953,39.595101 62.816387,-72.606846 60.224519,39.604882 101.40523,-64.809381 60.591005,39.748681 135,-44.283997 60.886207,40.009153 159.54866,-13.506359 61.074519,40.354882 172.09028,23.811296 61.133228,40.744167 171.11216,63.167909 61.055254,41.130056 156.73227,99.81649 z"
         id="path5260"
         inkscape:connector-curvature="0" />
      <path
         transform="matrix(0.8965517,0,0,0.89655173,191.30773,90.271976)"
         style="fill:#ffffff;fill-opacity:1;stroke:#000000;stroke-width:1;stroke-miterlimit:4;stroke-opacity:1"
         d="M 160,88.216003 C 160,128.25665 127.54064,160.716 87.5,160.716 47.459356,160.716 15,128.25665 15,88.216003 c 0,-40.040644 32.459356,-72.5 72.5,-72.5 40.04064,0 72.5,32.459356 72.5,72.5 z"
         id="path5254"
         inkscape:connector-curvature="0" />
    </g>
    <path
       style="fill:none;stroke:#000000;stroke-width:1px;stroke-linecap:butt;stroke-linejoin:miter;stroke-opacity:1;marker-end:url(#Arrow2Mend)"
       d="m 110,10.716003 c -5,10 -5,10 -5,10"
       id="path5268"
       inkscape:connector-curvature="0"
       transform="translate(179.756,78.646183)" />
    <text
       sodipodi:linespacing="125%"
       id="text5454"
       y="84.362183"
       x="234.756"
       style="font-size:40px;font-style:normal;font-weight:normal;line-height:125%;letter-spacing:0px;word-spacing:0px;fill:#000000;fill-opacity:1;stroke:none;font-family:Sans"
       xml:space="preserve"><tspan
         style="font-size:14px;font-style:normal;font-variant:normal;font-weight:normal;font-stretch:normal;font-family:LM Roman 12;-inkscape-font-specification:'LM Roman 12,'"
         y="84.362183"
         x="234.756"
         id="tspan5456"
         sodipodi:role="line">End</tspan></text>
    <path
       style="fill:none;stroke:#000000;stroke-width:1px;stroke-linecap:butt;stroke-linejoin:miter;stroke-opacity:1;marker-end:url(#Arrow2Mend)"
       d="m 75,10.716003 c 5,10 5,10 5,10"
       id="path5460"
       inkscape:connector-curvature="0"
       transform="translate(179.756,78.646183)" />
    <path
       style="fill:none;stroke:#000000;stroke-width:1px;stroke-linecap:butt;stroke-linejoin:miter;stroke-opacity:1;marker-mid:none;marker-end:url(#Arrow2Mend)"
       d="m 234.756,164.36219 c 0,-45 75,-45 75,0"
       id="path5654"
       inkscape:connector-curvature="0"
       sodipodi:nodetypes="cc" />
    <text
       xml:space="preserve"
       style="font-size:40px;font-style:normal;font-weight:normal;line-height:125%;letter-spacing:0px;word-spacing:0px;fill:#000000;fill-opacity:1;stroke:none;font-family:Sans"
       x="169.23875"
       y="225.00447"
       id="text6392"
       sodipodi:linespacing="125%"><tspan
         sodipodi:role="line"
         id="tspan6394"
         x="169.23875"
         y="225.00447"
         style="font-size:14px;font-style:normal;font-variant:normal;font-weight:normal;font-stretch:normal;font-family:LM Roman 12;-inkscape-font-specification:'LM Roman 12,'">Head</tspan></text>
    <path
       style="fill:none;stroke:#000000;stroke-width:1px;stroke-linecap:butt;stroke-linejoin:miter;stroke-opacity:1;marker-end:url(#Arrow2Mend)"
       d="m 10,145.49829 c 10,-10 10,-10 10,-10"
       id="path6396"
       inkscape:connector-curvature="0"
       transform="translate(194.23876,74.506183)" />
    <text
       sodipodi:linespacing="125%"
       id="text6586"
       y="230.00447"
       x="334.23877"
       style="font-size:40px;font-style:normal;font-weight:normal;line-height:125%;letter-spacing:0px;word-spacing:0px;fill:#000000;fill-opacity:1;stroke:none;font-family:Sans"
       xml:space="preserve"><tspan
         style="font-size:14px;font-style:normal;font-variant:normal;font-weight:normal;font-stretch:normal;font-family:LM Roman 12;-inkscape-font-specification:'LM Roman 12,'"
         y="230.00447"
         x="334.23877"
         id="tspan6588"
         sodipodi:role="line">Tail</tspan></text>
    <path
       style="fill:none;stroke:#000000;stroke-width:1px;stroke-linecap:butt;stroke-linejoin:miter;stroke-opacity:1;marker-end:url(#Arrow2Mend)"
       d="m 135,150.49829 c -10,-5 -10,-5 -10,-5"
       id="path6960"
       inkscape:connector-curvature="0"
       transform="translate(194.23876,74.506183)" />
  </g>
</svg>
